<?xml version="1.0" encoding="UTF-8"?>
<svg width="190px" height="44px" viewBox="0 0 190 44" version="1.1" xmlns="http://www.w3.org/2000/svg" xmlns:xlink="http://www.w3.org/1999/xlink">
    <title>Logos/White</title>
    <defs>
        <polygon id="path-1" points="0.043575 0.240505495 6.810125 0.240505495 6.810125 30.7173549 0.043575 30.7173549"></polygon>
        <polygon id="path-3" points="0.317725714 0.218580645 11.8536 0.218580645 11.8536 10 0.317725714 10"></polygon>
    </defs>
    <g id="Atoms-|-Foundations" stroke="none" stroke-width="1" fill="none" fill-rule="evenodd">
        <g id="Logos" transform="translate(-368.000000, -178.000000)">
            <g id="Group-23" transform="translate(368.000000, 178.000000)">
                <path d="M13.0895661,28.1291079 C12.9712645,33.5183712 7.0980966,32.5202074 7.0980966,32.5202074 L7.0980966,22.9794587 C13.8581886,22.9794587 13.0895661,28.1291079 13.0895661,28.1291079 L13.0895661,28.1291079 Z M7.0980966,7.29123924 C12.5061702,7.29123924 12.6166977,11.2695178 12.6166977,11.2695178 C12.6166977,16.9117452 7.0980966,15.8341664 7.0980966,15.8341664 L7.0980966,7.29123924 Z M19.98486,28.9321575 C19.98486,28.9321575 20.1558903,22.4362193 16.6345584,19.4287201 C16.6345584,19.4287201 19.8141677,16.5423972 19.5119916,10.0752127 C19.5119916,10.0752127 19.6302932,1.6846117 10.3669391,1 L0,1 L0,38.9959495 L11.392107,38.9959495 C11.392107,38.9959495 20.4185199,39.5107775 19.98486,28.9321575 L19.98486,28.9321575 Z" id="Fill-1" fill="#FFFFFF"></path>
                <path d="M34.4919542,17.547854 L34.4902524,32.0820519 C34.4902524,32.0820519 34.3997164,34.1294469 31.9780467,34.1294469 C29.3191453,34.1294469 29.4668621,32.0820519 29.4668621,32.0820519 L29.4668621,17.547854 C29.4668621,17.547854 29.3984495,15.821322 31.9780467,15.821322 C34.3997164,15.821322 34.4919542,17.547854 34.4919542,17.547854 M41,32.9981639 L40.9965964,16.745008 C40.9965964,16.745008 40.9703886,10 31.9994895,10 C23.0292711,10 23,16.2382373 23,16.2382373 L23,32.7241221 C23,32.7241221 23.0292711,40 31.9205257,40 C40.9703886,40 41,32.9981639 41,32.9981639" id="Fill-3" fill="#FFFFFF"></path>
                <path d="M55.483592,17.547854 L55.4822138,32.0820519 C55.4822138,32.0820519 55.4656748,34.1294469 53.0141107,34.1294469 C50.3223865,34.1294469 50.5466968,32.0820519 50.5466968,32.0820519 L50.5466968,17.547854 C50.5466968,17.547854 50.402325,15.821322 53.0141107,15.821322 C55.4656748,15.821322 55.483592,17.547854 55.483592,17.547854 M62,32.9981639 L61.9889369,16.745008 C61.9889369,16.745008 62.1171142,10 53.0354736,10 C43.9548667,10 44,16.2382373 44,16.2382373 L44,32.7241221 C44,32.7241221 43.9548667,40 52.9558796,40 C62.1171142,40 62,32.9981639 62,32.9981639" id="Fill-5" fill="#FFFFFF"></path>
                <path d="M120.516229,17.547854 L120.514534,32.0820519 C120.514534,32.0820519 120.390765,34.1294469 117.978129,34.1294469 C115.329145,34.1294469 115.442741,32.0820519 115.442741,32.0820519 L115.442741,17.547854 C115.442741,17.547854 115.408492,15.821322 117.978129,15.821322 C120.390765,15.821322 120.516229,17.547854 120.516229,17.547854 M127,32.9981639 L126.881318,16.745008 C126.881318,16.745008 126.937268,10 117.999491,10 C109.063071,10 109,16.2382373 109,16.2382373 L109,32.7241221 C109,32.7241221 109.063071,40 117.920822,40 C126.937268,40 127,32.9981639 127,32.9981639" id="Fill-7" fill="#FFFFFF"></path>
                <path d="M65,10.6074444 L65,39 L71.146332,39 L71.146332,18.2400938 C71.146332,18.2400938 76.2682753,13.8269516 76.2682753,17.8824465 L76.2682753,39 L82.0731444,39 L82.0731444,18.3594232 C82.0731444,18.3594232 86.5121619,13.6479575 86.5121619,17.8824465 L86.5121619,39 L93,39 L93,14.1252751 C93,14.1252751 93.0607371,10.1891096 88.6251342,10.1891096 C88.6251342,10.1891096 84.8854327,9.78066215 82.0874858,12.5746748 C82.0874858,12.5746748 78.3170526,7.0282443 71.4877949,12.2166866 L71.4877949,10.6067625 L65,10.6074444 Z" id="Fill-9" fill="#FFFFFF"></path>
                <polygon id="Fill-11" fill="#FFFFFF" points="91 7.16216216 91 1 112 1 112 7.16216216 105.35 7.16216216 105.35 39 98 39 98 7.16216216"></polygon>
                <polygon id="Fill-13" fill="#FFFFFF" points="129 10 134.613795 39 140.227591 39 142.366246 25.6282048 144.861461 39 150.920518 39 156 10 149.494981 10 147.445378 23.1429398 145.128618 10 139.960434 10 137.6882 23.3427952 135.505019 10"></polygon>
                <path d="M158,10.5513949 L158,39 L164.923076,39 L164.923076,18.2976416 C164.923076,18.2976416 169.423076,13.7054197 169.423076,17.7653442 L169.423076,39 L176,39 L176,14.3775609 C176,14.3775609 176.021806,10 171.06523,10 C171.06523,10 167.346153,9.92346901 164.576922,12.4828152 L164.576922,10.5513949 L158,10.5513949 Z" id="Fill-15" fill="#FFFFFF"></path>
                <g id="Group-19" transform="translate(181.000000, 0.000000)">
                    <mask id="mask-2" fill="white">
                        <use xlink:href="#path-1"></use>
                    </mask>
                    <g id="Clip-18"></g>
                    <polygon id="Fill-17" fill="#FFFFFF" mask="url(#mask-2)" points="0.043575 0.247420879 1.573075 30.7173549 5.556425 29.8064319 6.810125 0.240267033"></polygon>
                </g>
                <g id="Group-22" transform="translate(178.000000, 34.000000)">
                    <mask id="mask-4" fill="white">
                        <use xlink:href="#path-3"></use>
                    </mask>
                    <g id="Clip-21"></g>
                    <polygon id="Fill-20" fill="#FFFFFF" mask="url(#mask-4)" points="11.85384 5.15696774 8.28366857 0.218580645 4.30858286 1.07890323 0.317725714 5.15148387 0.929382857 5.55503226 1.93944 5.44890323 1.94355429 7.59858065 6.10001143 10.0001935 10.8211543 8.47503226 10.8211543 5.57180645"></polygon>
                </g>
            </g>
        </g>
    </g>
</svg>