<svg xmlns="http://www.w3.org/2000/svg" width="170" height="26" fill="none"><path fill="#000" d="M0 5.3v15.363l7.49 4.033V.9L0 5.3ZM24.27 11.827h8.188v-8.36h2.864V22.46h-2.864v-7.92H24.27v7.956h-2.864V3.467h2.864v8.36Z"/><path fill="#000" fill-rule="evenodd" d="M37.819 16.41c0-1.723.624-3.19 1.872-4.4 1.248-1.21 2.754-1.833 4.516-1.833 1.8 0 3.305.623 4.553 1.833 1.249 1.21 1.836 2.713 1.836 4.51 0 1.797-.624 3.3-1.872 4.51-1.249 1.21-2.791 1.796-4.59 1.796-1.8 0-3.305-.623-4.516-1.833-1.212-1.21-1.8-2.75-1.8-4.583Zm2.827.073c0 1.21.33 2.127.954 2.823.661.697 1.506 1.064 2.607 1.064 1.102 0 1.946-.367 2.607-1.064.661-.696.955-1.613.955-2.786s-.33-2.09-.955-2.787c-.66-.696-1.505-1.063-2.607-1.063-1.065 0-1.909.367-2.57 1.063-.66.697-.991 1.614-.991 2.75Z" clip-rule="evenodd"/><path fill="#000" d="M55.847 10.507v6.856c0 1.98.77 2.97 2.35 2.97 1.578 0 2.35-.99 2.35-2.97v-6.856H63.3v6.93c0 .953-.11 1.796-.367 2.493-.22.623-.624 1.173-1.212 1.686-.917.807-2.13 1.21-3.561 1.21-1.432 0-2.607-.403-3.562-1.21-.587-.513-.991-1.063-1.211-1.686-.22-.55-.33-1.393-.33-2.493v-6.93h2.79ZM73.544 12.56l-2.276 1.21c-.367-.733-.808-1.1-1.359-1.1a.886.886 0 0 0-.66.257c-.184.183-.258.366-.258.66 0 .476.551.916 1.616 1.356 1.469.624 2.46 1.21 2.974 1.76.514.55.771 1.247.771 2.163 0 1.174-.44 2.127-1.285 2.897-.844.733-1.836 1.1-3.01 1.1-2.02 0-3.452-.99-4.26-2.933l2.35-1.1c.33.587.587.953.734 1.1.33.293.734.477 1.212.477.918 0 1.395-.44 1.395-1.284 0-.477-.367-.953-1.101-1.393a16.65 16.65 0 0 0-.423-.202c-.137-.064-.275-.128-.422-.201-.147-.074-.284-.138-.422-.202a16.986 16.986 0 0 1-.422-.202c-.808-.403-1.359-.77-1.69-1.173-.403-.513-.623-1.137-.623-1.943 0-1.027.367-1.907 1.064-2.567.735-.697 1.616-1.027 2.644-1.027 1.579-.036 2.717.77 3.451 2.347Z"/><path fill="#000" fill-rule="evenodd" d="M88.268 17.143h-8.592c.073.99.404 1.76.955 2.347.55.587 1.285.843 2.166.843.698 0 1.248-.146 1.726-.476.44-.33.954-.917 1.505-1.834l2.35 1.32a9.2 9.2 0 0 1-1.138 1.577c-.404.44-.845.806-1.285 1.1-.478.293-.955.476-1.506.623-.55.147-1.101.183-1.725.183-1.8 0-3.232-.586-4.296-1.723-1.102-1.173-1.616-2.677-1.616-4.583 0-1.907.514-3.41 1.579-4.583 1.065-1.174 2.46-1.724 4.222-1.724 1.763 0 3.158.55 4.186 1.687 1.028 1.1 1.542 2.677 1.542 4.62l-.073.623Zm-2.827-2.236c-.404-1.467-1.322-2.2-2.79-2.2-.331 0-.662.036-.956.146-.293.11-.55.257-.807.44-.257.184-.44.44-.625.697-.183.257-.293.587-.403.916h5.58ZM112.171 10.507h2.79v11.99h-2.79V21.25c-1.139 1.063-2.35 1.613-3.672 1.613-1.652 0-3.011-.587-4.112-1.796-1.065-1.21-1.616-2.75-1.616-4.584 0-1.796.551-3.3 1.616-4.473 1.064-1.21 2.423-1.797 4.038-1.797 1.396 0 2.644.587 3.746 1.724v-1.43Zm-6.573 5.976c0 1.137.294 2.09.918 2.787.624.733 1.432 1.1 2.387 1.1 1.028 0 1.872-.367 2.497-1.064.624-.733.954-1.65.954-2.786 0-1.137-.33-2.053-.954-2.787-.625-.696-1.469-1.063-2.46-1.063-.955 0-1.763.367-2.387 1.1-.661.733-.955 1.613-.955 2.713Z" clip-rule="evenodd"/><path fill="#000" d="M120.873 3.504v18.992h-2.754V3.504h2.754ZM126.821 3.504v18.992h-2.754V3.504h2.754Z"/><path fill="#000" fill-rule="evenodd" d="M138.13 14.797v7.7h-2.864V3.503h3.267c1.579 0 2.791.11 3.599.33a4.8 4.8 0 0 1 2.166 1.246c1.102 1.064 1.652 2.42 1.652 4.033 0 1.724-.587 3.117-1.762 4.144-1.175 1.026-2.754 1.54-4.7 1.54h-1.358Zm0-2.677h1.064c2.644 0 3.966-1.027 3.966-3.043 0-1.943-1.359-2.933-4.076-2.933h-.954v5.976Z" clip-rule="evenodd"/><path fill="#000" d="M151.127 10.507v1.063c.514-.55.955-.88 1.359-1.1.404-.22.881-.293 1.432-.293.734 0 1.505.22 2.276.696l-1.285 2.53c-.514-.366-1.028-.55-1.542-.55-1.505 0-2.276 1.137-2.276 3.41v6.197h-2.754V10.507h2.79Z"/><path fill="#000" fill-rule="evenodd" d="M157.002 16.41c0-1.723.624-3.19 1.873-4.4 1.248-1.21 2.754-1.833 4.516-1.833 1.799 0 3.304.623 4.553 1.833 1.248 1.21 1.836 2.713 1.836 4.51 0 1.797-.624 3.3-1.873 4.51-1.248 1.21-2.79 1.796-4.59 1.796-1.799 0-3.304-.623-4.516-1.833-1.175-1.21-1.799-2.75-1.799-4.583Zm2.827.073c0 1.21.331 2.127.955 2.823.661.697 1.505 1.064 2.607 1.064 1.101 0 1.946-.367 2.607-1.064.661-.696.954-1.613.954-2.786s-.33-2.09-.954-2.787c-.661-.696-1.506-1.063-2.607-1.063-1.065 0-1.909.367-2.57 1.063-.661.697-.992 1.614-.992 2.75Z" clip-rule="evenodd"/><path fill="#000" d="M97.227 12.67h.073s.037.037.037 0c.11 0 .257 0 .367.037a7.47 7.47 0 0 1 2.937.806V11.02c-1.064-.55-2.166-.843-3.34-.843-1.837 0-3.379.623-4.664 1.833-1.285 1.21-1.91 2.75-1.91 4.51 0 1.797.625 3.3 1.873 4.473 1.249 1.21 2.79 1.797 4.663 1.797 1.139 0 2.24-.294 3.378-.88v-2.494a7.43 7.43 0 0 1-2.937.844c-.183.037-.367.037-.55.037-1.029 0-1.91-.367-2.57-1.1-.662-.734-.992-1.65-.992-2.75s.33-2.017 1.028-2.75c.697-.734 1.542-1.027 2.607-1.027ZM9.657 22.46h3.157l.074-18.993H9.657v1.797h1.432L11.052 20.7H9.657v1.76Z"/></svg>