<svg width="215" height="24" viewBox="0 0 215 24" fill="none" xmlns="http://www.w3.org/2000/svg">
<path d="M82.247 20.4322H84.8309V16.1814H89.2332V13.6866H84.8309V9.43597H82.247V13.6866H77.8447V16.1814H82.247V20.4322Z" fill="#F8F3EB"/>
<path d="M6.79919 8.0163C7.66309 8.41747 8.85866 7.76371 9.4526 6.53047C10.0465 5.29723 9.83826 4.01942 8.97437 3.61825C8.11046 3.21708 6.91489 3.87827 6.31324 5.10408C5.7116 6.32988 5.92757 7.6077 6.79919 8.0163Z" fill="#F8F3EB"/>
<path d="M12.7853 12.5854C12.7853 15.557 16.642 20.5345 17.0507 21.3221C17.1916 21.5722 17.2756 21.8482 17.2976 22.1318C17.3061 22.3236 17.2709 22.5148 17.1944 22.692C17.118 22.8692 17.0022 23.0282 16.8553 23.1578C16.7082 23.2874 16.5335 23.3844 16.3435 23.442C16.1534 23.4996 15.9525 23.5165 15.7549 23.4913C15.5115 23.4863 15.2727 23.4257 15.0582 23.3147C14.8436 23.2036 14.6595 23.0452 14.5208 22.8524C14.112 22.4066 11.7903 19.3979 11.1192 18.5287C9.42224 16.3 6.69941 14.1084 5.23386 18.5287C4.46252 20.9431 4.55508 23.5211 2.85043 23.5211C0.0813196 23.5211 -1.3148 11.2556 1.678 2.61547C2.16394 1.23365 3.01241 -0.281897 4.12314 0.0449849C5.7121 0.505591 4.82506 2.6749 4.60137 3.63325C4.37768 4.59162 3.09726 8.95996 5.79694 10.104C8.49663 11.2481 13.2944 6.01058 13.9808 5.44597C14.0764 5.33706 14.1935 5.24737 14.3252 5.18207C14.4568 5.11676 14.6006 5.0771 14.7481 5.06538C14.8958 5.05364 15.0443 5.07007 15.1853 5.1137C15.3263 5.15734 15.4569 5.22733 15.5698 5.31967C15.6765 5.42807 15.7596 5.55575 15.8147 5.69533C15.8697 5.83493 15.8955 5.98363 15.8905 6.13288C15.8855 6.28211 15.8498 6.4289 15.7854 6.56477C15.7212 6.70062 15.6295 6.82285 15.5158 6.92436C15.107 7.42955 12.7853 9.94802 12.7853 12.5854Z" fill="#F8F3EB"/>
<path d="M61.4709 10.0003C60.4625 9.9948 59.4751 10.2778 58.6339 10.8133C57.7927 11.3489 57.1354 12.113 56.7456 13.0087C56.3558 13.9045 56.2507 14.8915 56.444 15.8447C56.6372 16.7979 57.1199 17.6745 57.8308 18.3632C58.542 19.052 59.4493 19.5218 60.4378 19.7133C61.4264 19.9048 62.4519 19.8094 63.384 19.439C64.3162 19.0685 65.1132 18.44 65.674 17.6329C66.2349 16.8256 66.5343 15.8763 66.5344 14.905C66.5369 13.6083 66.0052 12.3635 65.0558 11.444C64.1066 10.5245 62.8172 10.0052 61.4709 10.0003ZM61.4709 17.7847C60.8788 17.7884 60.2988 17.6227 59.8046 17.3084C59.3104 16.9942 58.9243 16.5458 58.6949 16.0199C58.4657 15.4941 58.4037 14.9145 58.5169 14.3547C58.6301 13.7949 58.9133 13.2801 59.3307 12.8755C59.7481 12.4709 60.2807 12.1948 60.8612 12.0821C61.4417 11.9695 62.0439 12.0255 62.5912 12.2428C63.1388 12.4603 63.6068 12.8293 63.9362 13.3033C64.2657 13.7773 64.4415 14.3347 64.4415 14.905C64.4427 15.2819 64.3669 15.6555 64.2183 16.0042C64.0697 16.3529 63.8512 16.67 63.5754 16.9375C63.2995 17.2048 62.9717 17.4172 62.6106 17.5627C62.2496 17.708 61.8622 17.7835 61.4709 17.7847Z" fill="#F8F3EB"/>
<path d="M55.549 13.8836C55.3813 12.8092 54.8208 11.8277 53.9686 11.1159C53.1164 10.404 52.0283 10.0086 50.9003 10.0007C49.6063 10.0775 48.3916 10.6267 47.5035 11.5364C46.6156 12.446 46.1211 13.6476 46.1211 14.8962C46.1211 16.1448 46.6156 17.3463 47.5035 18.2559C48.3916 19.1655 49.6063 19.7148 50.9003 19.7916C51.5974 19.7965 52.2886 19.6684 52.9341 19.415C53.5797 19.1616 54.1668 18.7875 54.6617 18.3146C54.8579 18.1189 54.9676 17.8574 54.9676 17.5854C54.9676 17.3133 54.8579 17.0518 54.6617 16.8561C54.4621 16.6711 54.196 16.5678 53.919 16.5678C53.642 16.5678 53.3759 16.6711 53.1764 16.8561C52.5592 17.4264 51.7453 17.7572 50.8906 17.785C50.2166 17.782 49.5634 17.5591 49.0379 17.1525C48.5124 16.7458 48.1456 16.1797 47.9973 15.5464H54.5555C54.6937 15.5464 54.8303 15.5202 54.9578 15.4693C55.0854 15.4184 55.2013 15.3439 55.2989 15.2498C55.3965 15.1558 55.474 15.0442 55.5268 14.9214C55.5796 14.7985 55.6068 14.6668 55.6068 14.5339C55.6014 14.3162 55.5821 14.099 55.549 13.8836ZM48.2769 13.5213C48.5307 13.0692 48.9067 12.6914 49.3651 12.4282C49.8235 12.165 50.3472 12.0259 50.881 12.0258C51.3827 12.0184 51.8748 12.1574 52.2931 12.4243C52.7113 12.6912 53.0361 13.0736 53.2246 13.5213H48.2769Z" fill="#F8F3EB"/>
<path d="M45.5861 10.0564C44.5244 10.0537 43.49 10.3793 42.6348 10.9853C42.6177 10.7347 42.5028 10.4996 42.3131 10.3273C42.1236 10.155 41.8732 10.0582 41.6125 10.0564C41.4745 10.0539 41.3375 10.0781 41.2093 10.1275C41.0813 10.1769 40.9648 10.2506 40.8668 10.3441C40.7687 10.4376 40.6912 10.5491 40.6387 10.672C40.5862 10.7949 40.5599 10.9267 40.5613 11.0596V18.7511C40.5531 18.8874 40.5746 19.0238 40.6241 19.1516C40.6737 19.2796 40.7504 19.3962 40.8493 19.494C40.9481 19.5918 41.067 19.6688 41.1983 19.72C41.3298 19.7712 41.4708 19.7956 41.6125 19.7915C41.8862 19.7915 42.1487 19.6867 42.3422 19.5004C42.5357 19.3139 42.6444 19.0612 42.6444 18.7975V14.9053C42.6444 12.9546 43.7825 12.1744 45.5379 12.0071C45.8086 11.9834 46.0628 11.8708 46.2576 11.6881C46.4525 11.5055 46.5763 11.2639 46.6084 11.0039C46.6113 10.8755 46.5866 10.7479 46.5357 10.6292C46.4849 10.5105 46.409 10.4033 46.3129 10.3143C46.2169 10.2252 46.1027 10.1563 45.9775 10.1119C45.8525 10.0676 45.7192 10.0486 45.5861 10.0564Z" fill="#F8F3EB"/>
<path d="M28.8915 18.1003L25.4677 14.2639L28.4768 11.8209C28.689 11.6508 28.8223 11.4065 28.8476 11.1418C28.873 10.877 28.7882 10.6135 28.6119 10.4089C28.5239 10.3094 28.4164 10.2275 28.2956 10.168C28.1747 10.1085 28.043 10.0726 27.9077 10.0622C27.7724 10.0519 27.6363 10.0673 27.5072 10.1077C27.3782 10.148 27.2586 10.2125 27.1554 10.2974L23.0759 13.6044V9.09912C23.0771 8.96782 23.0513 8.83757 23 8.7159C22.9487 8.59423 22.873 8.48357 22.777 8.39028C22.6811 8.29701 22.5668 8.22295 22.441 8.17242C22.3152 8.12189 22.1802 8.09589 22.0439 8.09589C21.9075 8.09589 21.7725 8.12189 21.6467 8.17242C21.5208 8.22295 21.4067 8.29701 21.3107 8.39028C21.2148 8.48357 21.1389 8.59423 21.0876 8.7159C21.0363 8.83757 21.0106 8.96782 21.0119 9.09912V18.7506C21.0053 18.885 21.0272 19.0193 21.0761 19.1453C21.1251 19.2713 21.2001 19.3864 21.2966 19.4837C21.3931 19.5809 21.509 19.6583 21.6375 19.7112C21.7659 19.764 21.9041 19.7911 22.0439 19.791C22.3176 19.791 22.58 19.6862 22.7735 19.4999C22.9671 19.3135 23.0759 19.0607 23.0759 18.797V16.2054L23.886 15.5459L27.3387 19.4009C27.4274 19.4998 27.5354 19.5807 27.6565 19.6394C27.7777 19.6981 27.9097 19.7332 28.045 19.7426C28.1801 19.7521 28.3161 19.7359 28.4448 19.6948C28.5735 19.6536 28.6926 19.5884 28.7951 19.503C28.8982 19.4178 28.9826 19.3135 29.0434 19.1964C29.1042 19.0794 29.14 18.9518 29.149 18.8212C29.158 18.6906 29.1399 18.5596 29.0956 18.4358C29.0514 18.312 28.9821 18.198 28.8915 18.1003Z" fill="#F8F3EB"/>
<path d="M38.0643 10.0564C37.8172 10.0585 37.5792 10.1459 37.3933 10.3027C37.2075 10.4595 37.0862 10.6754 37.0516 10.911C36.211 10.319 35.1995 9.99427 34.1582 9.98206C32.8136 9.98942 31.5267 10.5097 30.5794 11.429C29.6322 12.3483 29.1019 13.5916 29.1045 14.8867C29.0663 15.5333 29.1688 16.1805 29.4057 16.7866C29.6426 17.3928 30.0085 17.9445 30.4798 18.4063C30.9512 18.8682 31.5177 19.23 32.1429 19.4686C32.768 19.7071 33.4381 19.8171 34.11 19.7915C34.6983 19.7959 35.2771 19.6483 35.7859 19.3641C36.2949 19.0798 36.7152 18.6691 37.0034 18.1751V18.1101V18.7417C36.9953 18.8793 37.017 19.0169 37.067 19.1459C37.117 19.2749 37.1945 19.3925 37.2942 19.4913C37.394 19.5899 37.5139 19.6675 37.6465 19.7193C37.7791 19.771 37.9213 19.7956 38.0643 19.7915C38.1998 19.7915 38.334 19.7657 38.4592 19.7158C38.5844 19.6659 38.6982 19.5927 38.794 19.5004C38.8898 19.408 38.9658 19.2984 39.0177 19.1778C39.0696 19.0572 39.0963 18.928 39.0963 18.7975V11.0596C39.0963 10.7951 38.9878 10.5414 38.7945 10.3535C38.6013 10.1656 38.3388 10.0588 38.0643 10.0564ZM34.11 17.7942C33.3135 17.7918 32.5506 17.4853 31.9884 16.9421C31.4262 16.3989 31.1105 15.6631 31.1105 14.896C31.1105 14.1299 31.4265 13.395 31.989 12.8532C32.5515 12.3114 33.3145 12.0071 34.11 12.0071C34.9055 12.0071 35.6684 12.3114 36.231 12.8532C36.7934 13.395 37.1095 14.1299 37.1095 14.896C37.1095 15.6631 36.7938 16.3989 36.2315 16.9421C35.6693 17.4853 34.9064 17.7918 34.11 17.7942Z" fill="#F8F3EB"/>
<path d="M133.23 10.0108C135.625 10.0108 137.172 11.244 137.172 13.1563C137.172 15.1219 135.683 16.3927 133.378 16.3927C133.21 16.3927 133.036 16.3927 132.869 16.377H132.759H132.653V19.2472H130.749V10.1704L130.906 10.1516C131.677 10.0563 132.453 10.0082 133.23 10.0076V10.0108ZM135.212 13.197C135.212 12.5241 134.761 11.7354 133.491 11.7354C133.212 11.733 132.931 11.7487 132.653 11.7823V14.7057C132.853 14.7057 133.108 14.7432 133.34 14.7432C134.549 14.7432 135.212 14.1955 135.212 13.2001V13.197ZM169.561 9.88245H169.101V19.2253H171.002V13.9545L176.481 19.4005H176.858V10.0546H174.98V15.244L169.561 9.88245ZM178.924 11.7604H181.809V19.2253H183.711V11.7698H186.582V10.0546H178.924V11.7604ZM191.039 10.0108C193.434 10.0108 194.983 11.244 194.983 13.1563C194.983 15.1219 193.494 16.3927 191.187 16.3927C191.023 16.3927 190.849 16.3927 190.685 16.377H190.565H190.449V19.2472H188.544V10.1704L188.703 10.1516C189.474 10.0562 190.251 10.0081 191.029 10.0076L191.039 10.0108ZM193.027 13.1877C193.027 12.5147 192.58 11.726 191.31 11.726C191.028 11.7234 190.748 11.7391 190.468 11.7729V14.7057C190.694 14.7245 190.933 14.7432 191.162 14.7432C192.366 14.7432 193.027 14.1955 193.027 13.2001V13.1877ZM160.566 19.2253H166.458V17.5227H162.471V15.4037H166.078V13.7417H162.471V11.7698H166.458V10.0577H160.566V19.2253ZM210.602 10.0108C213.009 10.0108 214.547 11.2315 214.547 13.1407C214.547 15.1063 213.054 16.377 210.75 16.377C210.582 16.377 210.411 16.377 210.245 16.3614H210.129H210.022V19.2316H208.121V10.1548L208.275 10.136C209.046 10.0405 209.823 9.99241 210.602 9.99199V10.0108ZM212.584 13.1814C212.584 12.5085 212.133 11.7197 210.86 11.7197C210.58 11.7174 210.3 11.7331 210.022 11.7667V14.7057C210.247 14.7245 210.486 14.7432 210.714 14.7432C211.92 14.7432 212.584 14.1955 212.584 13.2001V13.1814ZM201.446 9.91374C204.185 9.91374 206.171 11.9044 206.171 14.6463C206.188 15.2667 206.077 15.8843 205.842 16.4616C205.607 17.0391 205.255 17.5643 204.805 18.0057C204.356 18.4471 203.819 18.7955 203.227 19.0299C202.636 19.2642 202.001 19.3797 201.362 19.3693C198.622 19.3693 196.637 17.3818 196.637 14.6463C196.618 14.025 196.729 13.4067 196.964 12.8284C197.198 12.2501 197.55 11.7239 198 11.2816C198.449 10.8392 198.986 10.49 199.579 10.2549C200.171 10.0198 200.806 9.90375 201.446 9.91374ZM201.407 17.6854C202.999 17.6854 204.155 16.4083 204.155 14.6463C204.155 12.8841 203.019 11.6039 201.407 11.6039C199.795 11.6039 198.645 12.8841 198.645 14.6463C198.645 16.4083 199.808 17.6854 201.407 17.6854ZM142.193 9.88558L146.618 19.2253H144.588V19.2003L143.717 17.2096H140.34L139.463 19.2316H137.468L137.497 19.1721L141.897 9.88558H142.193ZM141.001 15.6697H143.034L142.019 13.4537L141.001 15.6697ZM146.202 11.7698H149.103V19.2253H151.005V11.7698H153.879V10.0546H146.202V11.7698ZM155.926 10.0577H157.827V19.2253H155.926V10.0577Z" fill="#F8F3EB"/>
<path d="M120.923 5.6692L118.667 3.47824L107.046 14.7743L104.339 12.1451C103.675 11.5099 103.293 10.6488 103.272 9.74439C103.26 9.31908 103.337 8.89588 103.499 8.50062C103.661 8.10535 103.905 7.74634 104.215 7.4455C104.524 7.14466 104.894 6.90831 105.301 6.75089C105.708 6.59346 106.144 6.51828 106.582 6.52993C107.514 6.54817 108.402 6.91872 109.057 7.56281L110.182 8.65829L112.438 6.46733L111.31 5.37811C110.071 4.16623 108.395 3.47025 106.636 3.43755C105.771 3.41829 104.911 3.56963 104.107 3.88243C103.303 4.19524 102.574 4.66301 101.962 5.25748C101.349 5.85195 100.868 6.56076 100.546 7.34111C100.224 8.12145 100.068 8.95711 100.088 9.79759C100.122 11.504 100.839 13.1304 102.086 14.3329L107.046 19.1498L120.923 5.6692ZM123.321 7.99787L125.577 10.1888L111.877 23.4879L109.621 21.297L123.321 7.99787Z" fill="#F8F3EB"/>
</svg>
