<svg width="461" height="77" viewBox="0 0 461 77" fill="none" xmlns="http://www.w3.org/2000/svg">
<path d="M20.31 58.14C22.84 58.82 25.37 57.29 26.03 54.8L32.09 32.89C32.76 30.37 31.38 27.49 28.88 26.82C26.39 26.14 23.73 27.93 23.06 30.44L17 52.35C16.33 54.87 17.81 57.46 20.3 58.13L20.31 58.14ZM36.68 58.08C39.22 58.76 41.76 57.22 42.42 54.74L51.52 21.65C52.19 19.13 50.71 16.53 48.21 15.86C45.71 15.18 43.14 16.68 42.47 19.2L33.37 52.29C32.7 54.81 34.18 57.41 36.68 58.08ZM49.89 64.74H21.52C14.22 64.74 8.91002 57.76 10.78 50.71L12.54 44.27C13.2 41.79 11.73 39.25 9.26002 38.58C6.78002 37.92 4.24002 39.38 3.58002 41.86L1.82002 48.33C-1.58998 61.21 8.12002 74.02 21.54 74.02H49.91C52.47 74.02 54.55 71.94 54.55 69.38C54.55 66.82 52.47 64.74 49.91 64.74H49.89ZM67.8 4.54998C65.33 3.83998 62.76 5.30998 62.07 7.82998L49.81 52.17C49.12 54.69 50.55 57.3 53.03 58.01C55.52 58.71 58.07 57.23 58.76 54.73L71.02 10.39C71.71 7.86998 70.28 5.25998 67.8 4.54998Z" fill="url(#paint0_linear_9153_1114)"/>
<path d="M135.88 15.9601C128.55 15.9601 122.7 20.0101 120.23 26.7901C119.99 27.4601 120.28 28.2001 120.91 28.5201L124.89 30.5501C125.67 30.9401 126.61 30.5501 126.87 29.7101C128.18 25.4601 131.47 23.0201 135.88 23.0201C141.97 23.0201 145.91 27.2201 145.91 33.7201V40.5101H135.54C125.61 40.5101 118.12 47.6201 118.12 57.0401C118.12 67.5001 125.38 74.8001 135.77 74.8001C139.59 74.8001 143.07 73.7901 145.91 71.8601V72.2201C145.91 73.1501 146.56 73.8001 147.49 73.8001H151.62C152.55 73.8001 153.2 73.1501 153.2 72.2201V33.7101C153.2 23.2501 146.08 15.9501 135.89 15.9501L135.88 15.9601ZM145.91 57.0501C145.91 63.6501 142.02 67.7501 135.77 67.7501C129.52 67.7501 125.4 63.5501 125.4 57.0501C125.4 51.4701 129.57 47.5801 135.54 47.5801H145.91V57.0501ZM217.99 17.0801H213.86C212.93 17.0801 212.28 17.7301 212.28 18.6601V56.9401C212.28 63.6801 208.78 67.8601 203.14 67.8601C197.5 67.8601 194 63.6701 194 56.9401V18.6501C194 17.7201 193.35 17.0701 192.42 17.0701H188.29C187.36 17.0701 186.71 17.7201 186.71 18.6501V56.9301C186.71 63.6701 183.21 67.8501 177.57 67.8501C171.93 67.8501 168.43 63.6601 168.43 56.9301V18.6501C168.43 17.7201 167.78 17.0701 166.85 17.0701H162.72C161.79 17.0701 161.14 17.7201 161.14 18.6501V56.9301C161.14 67.5201 167.89 74.9101 177.56 74.9101C182.88 74.9101 187.61 72.0001 190.39 67.0801C193.06 72.0001 197.76 74.9101 203.12 74.9101C212.79 74.9101 219.54 67.5201 219.54 56.9301V18.6501C219.54 17.7201 218.89 17.0701 217.96 17.0701L217.99 17.0801ZM112.32 66.9701H98.8101C91.4401 66.9701 89.8901 60.3601 89.8901 54.8201V18.0901C89.8901 17.1601 89.2401 16.5101 88.3101 16.5101H84.1801C83.2501 16.5101 82.6001 17.1601 82.6001 18.0901V54.8101C82.6001 66.8401 88.6501 74.0201 98.8001 74.0201H112.31C113.24 74.0201 113.89 73.3701 113.89 72.4401V68.5301C113.89 67.5401 113.3 66.9501 112.31 66.9501L112.32 66.9701ZM269.79 15.9601C264.43 15.9601 259.73 18.8701 257.06 23.7901C254.28 18.8701 249.55 15.9601 244.23 15.9601C234.56 15.9601 227.81 23.3601 227.81 33.9401V72.2201C227.81 73.1501 228.46 73.8001 229.39 73.8001H233.52C234.45 73.8001 235.1 73.1501 235.1 72.2201V33.9401C235.1 27.2001 238.6 23.0201 244.24 23.0201C249.88 23.0201 253.38 27.2101 253.38 33.9401V72.2201C253.38 73.1501 254.03 73.8001 254.96 73.8001H259.09C260.02 73.8001 260.67 73.1501 260.67 72.2201V33.9401C260.67 27.2001 264.17 23.0201 269.81 23.0201C275.45 23.0201 278.95 27.2101 278.95 33.9401V72.2201C278.95 73.1501 279.6 73.8001 280.53 73.8001H284.66C285.59 73.8001 286.24 73.1501 286.24 72.2201V33.9401C286.24 23.3501 279.49 15.9601 269.82 15.9601H269.79ZM443.09 41.8201C436.98 39.2501 431.71 37.0201 431.71 31.4901C431.71 26.4201 435.56 23.0201 441.3 23.0201C445.88 23.0201 449.11 25.3201 450.41 29.4901C450.67 30.3401 451.62 30.7201 452.39 30.3301L456.49 28.2401C457.1 27.9301 457.4 27.2001 457.19 26.5501C454.89 19.6301 449.29 15.9701 440.97 15.9701C431.55 15.9701 424.44 22.6501 424.44 31.5001C424.44 41.8701 432.73 45.4001 440.04 48.5001C446.34 51.1801 451.79 53.4901 451.79 59.4001C451.79 64.7801 448.3 67.8701 442.21 67.8701C435.11 67.8701 431.5 64.2901 431.17 56.9501C431.17 55.9601 430.58 55.3701 429.59 55.3701H425.46C424.53 55.3701 423.88 56.0201 423.88 56.9701C424.35 68.0501 431.37 74.9301 442.2 74.9301C451.82 74.9301 459.07 68.2501 459.07 59.4001C459.07 48.5501 450.59 44.9801 443.11 41.8301L443.09 41.8201ZM311.04 15.9601C303.71 15.9601 297.86 20.0101 295.39 26.7901C295.15 27.4501 295.44 28.2001 296.07 28.5201L300.05 30.5501C300.83 30.9401 301.77 30.5501 302.03 29.7101C303.34 25.4601 306.63 23.0201 311.04 23.0201C317.13 23.0201 321.07 27.2201 321.07 33.7201V40.5101H310.7C300.77 40.5101 293.28 47.6201 293.28 57.0401C293.28 67.5001 300.54 74.8001 310.93 74.8001C314.75 74.8001 318.23 73.7901 321.07 71.8601V72.2201C321.07 73.1501 321.72 73.8001 322.65 73.8001H326.78C327.71 73.8001 328.36 73.1501 328.36 72.2201V33.7101C328.36 23.2501 321.24 15.9501 311.05 15.9501L311.04 15.9601ZM321.07 57.0501C321.07 63.6501 317.18 67.7501 310.93 67.7501C304.68 67.7501 300.56 63.5501 300.56 57.0501C300.56 51.4701 304.73 47.5801 310.7 47.5801H321.07V57.0501ZM358.28 66.9701H356.83C349.46 66.9701 347.91 60.3601 347.91 54.8201V24.0301H356.94C357.87 24.0301 358.52 23.3801 358.52 22.4501V18.6601C358.52 17.7301 357.87 17.0801 356.94 17.0801H347.91V3.03012C347.91 2.10012 347.26 1.45012 346.33 1.45012H342.2C341.27 1.45012 340.62 2.10012 340.62 3.03012V17.0801H334.16C333.23 17.0801 332.58 17.7301 332.58 18.6601V22.4501C332.58 23.3801 333.23 24.0301 334.16 24.0301H340.62V54.8201C340.62 66.8501 346.67 74.0301 356.82 74.0301H358.27C359.2 74.0301 359.85 73.3801 359.85 72.4501V68.5401C359.85 67.5501 359.26 66.9601 358.27 66.9601L358.28 66.9701ZM373.71 17.0801H369.58C368.65 17.0801 368 17.7301 368 18.6601V72.2301C368 73.1601 368.65 73.8101 369.58 73.8101H373.71C374.64 73.8101 375.29 73.1601 375.29 72.2301V18.6501C375.29 17.7201 374.64 17.0701 373.71 17.0701V17.0801ZM371.59 1.12012C368.76 1.12012 366.78 3.10012 366.78 5.93012C366.78 8.76012 368.85 10.7401 371.59 10.7401C374.33 10.7401 376.4 8.58012 376.4 5.93012C376.4 3.28012 374.33 1.12012 371.59 1.12012ZM416.57 55.3601H412.44C411.45 55.3601 410.86 55.9501 410.86 56.9101C410.42 63.6701 406.53 67.8701 400.72 67.8701C394.56 67.8701 390.58 63.5801 390.58 56.9501V33.9601C390.58 27.3201 394.47 23.0401 400.5 23.0401C405.63 23.0401 409.18 25.9801 410.22 31.2201C410.38 32.0101 411.15 32.5201 411.93 32.3301L416.12 31.2901C416.93 31.0901 417.43 30.2801 417.25 29.4601C415.42 21.1201 408.85 15.9701 400.49 15.9701C391.02 15.9701 383.31 23.7901 383.31 33.3801V56.9401C383.31 67.5301 390.48 74.9201 400.73 74.9201C410.98 74.9201 417.56 67.7001 418.15 56.9401C418.15 56.0101 417.5 55.3601 416.57 55.3601Z" fill="#233043"/>
<defs>
<linearGradient id="paint0_linear_9153_1114" x1="1.12002" y1="39.2" x2="71.19" y2="39.2" gradientUnits="userSpaceOnUse">
<stop offset="0.06" stop-color="#00B3C0"/>
<stop offset="1" stop-color="#009CE4"/>
</linearGradient>
</defs>
</svg>
