<svg width="200" height="24" viewBox="0 0 200 24" fill="none" xmlns="http://www.w3.org/2000/svg">
<path d="M5.08398 12.8841C6.11098 12.5851 6.34498 11.6491 6.34498 11.0251C6.34498 9.69905 5.29198 8.71106 3.65398 8.71106H0.0269775V17.6681H3.91398C6.01998 17.6681 6.81298 16.3161 6.81298 15.0941C6.81298 14.0671 6.26698 13.0531 5.08398 12.8841ZM3.51098 10.4921C4.06998 10.4921 4.30398 10.8951 4.30398 11.3501C4.30398 11.8961 3.97898 12.2081 3.49798 12.2081H2.06798V10.4921H3.51098ZM3.66698 15.8871H2.06798V13.8851H3.66698C4.43398 13.8851 4.75898 14.4181 4.75898 14.8861C4.75898 15.3931 4.39498 15.8871 3.66698 15.8871Z" fill="black"/>
<path d="M13.8931 17.6681H16.0641L12.7621 8.71106H10.5391L7.2241 17.6681H9.4081L10.0711 15.5881H13.2171L13.8931 17.6681ZM10.6301 13.8201L11.6311 10.6871L12.6451 13.8201H10.6301Z" fill="black"/>
<path d="M20.8402 17.7721C22.4132 17.7721 23.7912 16.9921 24.6102 15.7961L23.0242 14.6781C22.5562 15.4061 21.8672 15.8481 20.9182 15.8481C19.3842 15.8481 18.3442 14.6521 18.3442 13.1701C18.3442 11.6881 19.4232 10.5311 20.9312 10.5311C21.8672 10.5311 22.5562 10.9731 23.0242 11.6881L24.6102 10.5831C23.7912 9.38705 22.4132 8.59406 20.8402 8.59406C18.3182 8.59406 16.2902 10.6481 16.2902 13.1701C16.2902 15.7181 18.3182 17.7721 20.8402 17.7721Z" fill="black"/>
<path d="M33.2958 17.6681L29.1098 13.1441L32.4898 8.71106H29.9418L27.9918 11.4541V8.71106H25.9508V17.6681H27.9918V14.7821L30.5008 17.6681H33.2958Z" fill="black"/>
<path d="M42.3543 8.71106H35.5813V10.4921H37.9473V17.6681H39.9883V10.4921H42.3543V8.71106Z" fill="black"/>
<path d="M47.3867 17.7851C49.9087 17.7851 51.9497 15.7181 51.9497 13.1831C51.9497 10.6481 49.9087 8.59406 47.3867 8.59406C44.8257 8.59406 42.8107 10.6481 42.8107 13.1831C42.8107 15.7181 44.8257 17.7851 47.3867 17.7851ZM47.3737 15.8611C45.8657 15.8611 44.8647 14.6781 44.8647 13.1831C44.8647 11.6881 45.8657 10.5181 47.3737 10.5181C48.8687 10.5181 49.8957 11.6881 49.8957 13.1831C49.8957 14.6781 48.8687 15.8611 47.3737 15.8611Z" fill="black"/>
<path d="M99.6096 9.48886C98.9708 8.94134 98.1496 8.57633 97.2371 8.57633C96.5983 8.57633 95.777 8.94135 95.777 9.67137C95.777 10.4926 96.6895 10.7664 97.3283 10.9489L98.2408 11.2226C100.157 11.7702 101.617 12.6827 101.617 14.8727C101.617 16.2415 101.252 17.6103 100.248 18.5228C99.1533 19.4354 97.7845 19.8004 96.4158 19.8004C94.682 19.8004 93.0394 19.2529 91.6707 18.2491L93.1307 15.4203C94.0432 16.1503 95.047 16.7891 96.2333 16.7891C97.0545 16.7891 97.9671 16.3328 97.9671 15.4203C97.9671 14.4165 96.5983 14.0515 95.8683 13.869C93.6782 13.2302 92.2182 12.6827 92.2182 10.0364C92.2182 7.2988 94.1345 5.47375 96.872 5.47375C98.2408 5.47375 99.8834 5.93003 101.07 6.5688L99.6096 9.48886Z" fill="black"/>
<path d="M109.369 13.5971C109.186 12.6846 108.365 12.1371 107.544 12.1371C106.631 12.1371 105.81 12.6846 105.627 13.5971H109.369ZM112.38 15.4222H105.536C105.536 16.7909 106.266 17.521 107.544 17.521C108.274 17.521 108.73 17.3385 109.095 16.6997H112.197C111.65 18.981 109.642 19.8935 107.544 19.8935C104.532 19.8935 102.251 18.1597 102.251 14.9659C102.251 11.8633 104.35 10.0383 107.361 10.0383C110.555 10.0383 112.38 12.0458 112.38 15.1484V15.4222Z" fill="black"/>
<path d="M116.402 12.2279C117.132 10.8591 118.136 10.4941 119.413 10.4941H120.052V13.5967C119.504 13.323 119.139 13.323 118.683 13.323C116.858 13.323 116.402 14.5093 116.402 16.0605V19.8019H113.208V10.5854H116.402V12.2279Z" fill="black"/>
<path d="M125.339 15.2378L127.529 10.5839H131.179L126.343 19.7092H124.244L119.499 10.5839H123.149L125.339 15.2378Z" fill="black"/>
<path d="M134.832 19.7072H131.456V10.4907H134.832V19.7072ZM135.014 7.3881C135.014 8.39188 134.193 9.21315 133.189 9.21315C132.186 9.21315 131.364 8.39188 131.364 7.3881C131.364 6.38432 132.186 5.56305 133.189 5.56305C134.193 5.56305 135.014 6.38432 135.014 7.3881Z" fill="black"/>
<path d="M143.135 13.32C142.587 12.955 142.04 12.6812 141.401 12.6812C140.123 12.6812 139.12 13.685 139.12 14.9625C139.12 16.3313 140.123 17.2438 141.401 17.2438C141.948 17.2438 142.496 16.9701 143.043 16.6051V19.3427C142.222 19.7077 141.492 19.8902 140.762 19.8902C138.024 19.8902 135.743 17.8826 135.743 15.0538C135.743 12.1337 138.024 10.0349 140.945 10.0349C141.675 10.0349 142.496 10.2174 143.135 10.5824V13.32Z" fill="black"/>
<path d="M151.079 13.5931C150.897 12.6806 150.075 12.1331 149.254 12.1331C148.342 12.1331 147.52 12.6806 147.338 13.5931H151.079ZM154.091 15.4182H147.247C147.247 16.787 147.977 17.517 149.254 17.517C149.984 17.517 150.44 17.3345 150.805 16.6957H153.908C153.361 18.977 151.353 19.8896 149.254 19.8896C146.243 19.8896 143.962 18.1558 143.962 14.9619C143.962 11.8593 146.06 10.0343 149.072 10.0343C152.266 10.0343 154.091 12.0419 154.091 15.1444V15.4182Z" fill="black"/>
<path d="M160.567 19.7126H157.191V9.21861H154.18V6.29852H163.487V9.21861H160.567V19.7126Z" fill="black"/>
<path d="M167.499 19.7072H164.214V10.4907H167.499V19.7072ZM167.682 7.3881C167.682 8.39188 166.86 9.21315 165.857 9.21315C164.853 9.21315 164.031 8.39188 164.031 7.3881C164.031 6.38432 164.853 5.56305 165.857 5.56305C166.86 5.56305 167.682 6.38432 167.682 7.3881Z" fill="black"/>
<path d="M172.792 19.7098H169.507V13.2309H168.503V10.5846H169.507V7.75574H172.792V10.5846H174.617V13.2309H172.792V19.7098Z" fill="black"/>
<path d="M177.901 15.145C177.901 16.3313 178.631 17.2438 180 17.2438C181.369 17.2438 182.099 16.3313 182.099 15.145C182.099 14.0499 181.369 13.0461 180 13.0461C178.722 13.0461 177.901 14.0499 177.901 15.145ZM185.292 19.7076H182.007V18.7038C181.46 19.6163 180.273 20.0726 179.27 20.0726C176.532 20.0726 174.616 17.7913 174.616 15.145C174.616 12.4987 176.532 10.2173 179.178 10.2173C180.273 10.2173 181.277 10.5823 182.007 11.4036V10.4911H185.292V19.7076Z" fill="black"/>
<path d="M189.582 11.7711C190.403 10.6761 191.316 10.3111 192.594 10.3111C195.057 10.3111 196.061 11.8624 196.061 14.1437V19.8014H192.776V15.33C192.776 14.4175 192.959 12.9574 191.316 12.9574C189.947 12.9574 189.582 13.9612 189.582 15.0562V19.8014H186.297V10.5849H189.582V11.7711Z" fill="black"/>
<path d="M197.703 10.0357V10.4007H197.977C198.159 10.4007 198.524 10.4007 198.524 10.2182C198.524 10.0357 198.342 10.0357 198.159 10.0357H197.703ZM198.707 11.4045H198.433L198.068 10.6745H197.703V11.4045H197.52V9.76195H198.159C198.433 9.76195 198.707 9.8532 198.707 10.2182C198.707 10.492 198.524 10.6745 198.25 10.6745L198.707 11.4045ZM196.882 10.5832C196.882 11.222 197.429 11.7695 198.068 11.7695C198.707 11.7695 199.254 11.222 199.254 10.5832C199.254 9.94445 198.707 9.39692 198.068 9.39692C197.429 9.39692 196.882 9.85319 196.882 10.5832ZM196.608 10.5832C196.608 9.76194 197.247 9.12317 198.068 9.12317C198.889 9.12317 199.528 9.76194 199.528 10.5832C199.528 11.4045 198.889 12.0433 198.068 12.0433C197.247 11.952 196.608 11.3132 196.608 10.5832Z" fill="black"/>
<path d="M61.2835 21.9C61.2835 21.9 62.6523 22.4475 62.6523 22.995C62.6523 22.995 62.5611 23.4513 62.1048 23.4513C61.6485 23.4513 61.0098 22.7212 61.0098 22.3562C61.0098 21.9912 61.2835 21.9 61.2835 21.9Z" fill="black"/>
<path d="M59.8213 15.0573C59.73 15.0573 59.73 14.966 59.8213 15.0573C59.73 14.966 59.73 14.966 59.73 14.966C59.4563 15.0573 59 15.4223 59 16.061C59 18.5249 65.6614 18.7986 69.3115 23.27C69.6766 23.7262 70.3153 24 70.9541 24C71.7753 24 72.5966 23.9088 73.3266 23.8175C73.4179 23.8175 73.5092 23.7262 73.5092 23.635C73.5092 23.5437 73.5092 23.4525 73.5092 23.3612C69.0378 17.2473 60.5513 18.7074 59.8213 15.0573Z" fill="black"/>
<path d="M69.4051 7.29944C68.9488 6.84318 67.7625 7.20819 67.1238 7.7557C66.485 8.30322 66.7587 8.66823 66.7587 8.66823C67.3063 7.93821 68.1275 7.57321 68.6751 7.48196C69.1313 7.48196 69.4051 7.29944 69.4051 7.29944Z" fill="black"/>
<path d="M83.0929 8.57773C83.0929 8.57773 82.1803 8.76024 81.3591 7.84772C81.3591 7.84772 81.7241 7.84772 81.8153 7.39145C81.7241 7.39145 82.2716 8.39522 83.0929 8.57773ZM82.8191 12.7753C82.8191 12.7753 82.6366 13.7791 81.4503 13.7791C80.1728 13.7791 79.0778 12.0453 78.7128 7.93897C78.9865 8.39524 79.3515 8.85148 79.534 9.39899C79.534 8.85148 79.8078 7.84772 78.5303 6.93519C78.5303 6.93519 81.9066 7.66522 81.9979 11.1328C81.9979 11.7716 81.6328 12.3191 81.4503 12.5928C81.4503 12.5928 81.2678 12.6841 81.3591 12.9579C81.4503 13.1404 81.7241 13.1404 81.9979 12.8666C82.2716 12.5928 82.8191 12.2278 82.8191 12.7753ZM78.074 14.6917C78.074 14.6917 77.1615 16.4254 75.8839 16.4254C75.3364 16.4254 74.9714 16.0604 74.9714 15.6042C74.9714 15.1479 75.6102 13.3229 78.2565 13.3229C78.8953 13.3229 79.3515 13.4141 79.3515 13.8704C79.4428 14.1441 78.804 14.7829 78.074 14.6917ZM78.074 6.02267C78.074 6.02267 77.709 5.9314 77.8002 5.38389C77.8915 5.20138 77.8915 5.20138 77.8915 4.92763C77.8915 4.65387 77.9827 4.38013 78.1652 4.28888C78.1652 4.28888 78.5303 4.28885 78.5303 5.29263C78.5303 5.74889 78.074 6.02267 78.074 6.02267ZM76.8877 6.02267C76.3402 5.93142 76.7052 5.11014 76.3402 5.11014C76.1577 5.11014 76.1577 6.02266 75.9752 5.93141C75.6102 5.65765 75.8839 5.0189 75.8839 4.74514C75.8839 4.47138 76.0665 4.10637 75.7927 4.28888C75.5189 4.47138 75.3364 4.92762 75.2452 5.29263C75.1539 5.65764 75.3364 5.84015 75.5189 6.29641C75.7014 6.75268 75.4277 6.57019 75.4277 6.57019C74.0589 5.74892 75.0627 3.92384 75.0627 3.92384C75.7014 2.92007 76.614 3.19384 76.614 3.19384C76.7965 3.28509 76.7965 3.37634 76.7965 3.55884C76.7965 3.74135 76.8877 3.83259 77.0702 3.92384C77.344 4.0151 77.4352 4.28885 77.4352 4.83637C77.4352 5.47514 77.0702 6.11392 76.8877 6.02267ZM78.9865 5.93141L81.2678 6.66142C81.2678 6.66142 81.7241 7.4827 80.8116 7.20894C79.9903 6.93518 79.169 6.75268 79.169 6.75268C79.169 6.75268 78.804 6.47892 78.9865 5.93141ZM67.7625 9.39899C66.1199 9.67275 65.5724 9.2165 65.5724 8.76024C65.5724 7.48271 69.3138 6.47893 70.3176 6.47893C70.5001 6.75269 70.135 6.75268 70.0438 7.20894C69.8613 7.6652 69.4963 7.84772 68.9488 7.93897C68.4013 8.03023 67.8537 8.30397 67.4887 8.57773C67.1237 8.85148 67.4887 9.034 68.1275 8.8515C68.7662 8.66899 68.8575 8.94275 69.1313 8.8515C69.405 8.76025 69.1313 8.39524 69.3138 8.39524C69.4963 8.30398 69.8613 8.57773 69.8613 8.57773L70.7738 9.2165L69.6788 9.76402C69.5875 9.76402 69.4963 9.85527 69.4963 10.0378C69.4963 10.2203 70.0438 10.2203 70.3176 10.2203C70.5001 10.2203 70.5913 10.5853 70.5913 10.5853C70.3175 10.9503 69.4963 10.9503 69.4963 10.9503C69.6788 11.3153 70.6825 11.224 70.865 11.3153C71.0476 11.3153 71.0476 11.5891 71.2301 12.0453C71.3213 12.5016 71.9601 12.6841 71.9601 12.6841C72.1426 13.4141 71.3213 13.5966 70.7738 13.5966C67.3975 13.4141 67.7625 9.39899 67.7625 9.39899ZM68.1275 4.28888C68.0362 4.28888 68.0362 4.28888 68.1275 4.28888C67.8537 2.92009 68.4012 1.36879 68.4012 1.36879C68.4012 1.36879 67.0325 2.46383 67.1237 4.28888C65.9374 4.28888 64.2036 4.38011 63.1998 5.29263C61.7398 6.47891 61.5573 8.76023 61.4661 9.39899C61.4661 9.39899 61.466 9.49025 61.3748 9.49025H61.2835C60.9185 9.30774 60.1885 8.57774 60.736 7.02645C61.4661 5.0189 63.6561 1.00377 67.945 0.730009C67.945 0.730009 69.3138 0.638756 70.135 1.18627C70.135 1.18627 70.2263 1.18628 70.2263 1.27753V1.36879C69.8613 1.64254 68.675 2.73756 68.31 4.38011C68.31 4.47136 68.2187 4.47136 68.2187 4.47136C68.2187 4.28886 68.1275 4.28888 68.1275 4.28888ZM71.3213 9.67277C71.3213 9.67277 71.6863 11.4066 72.5076 12.0453C72.5076 12.0453 72.5076 12.2278 72.2338 12.2278C71.9601 12.2278 71.5038 11.8628 71.3213 10.859C71.1388 9.94651 71.3213 9.67277 71.3213 9.67277ZM72.5076 5.29263C71.5038 5.29263 71.0476 4.38011 71.0476 4.38011C71.0476 4.38011 72.2338 5.47515 73.8764 4.56262C73.8764 4.65388 73.5114 5.29263 72.5076 5.29263ZM85.1004 6.75268C84.8267 6.20516 84.4617 5.84017 83.6404 5.65766C82.9104 5.47516 82.2716 5.5664 81.8153 5.93141L80.3553 5.38389C80.1728 5.01888 80.0816 4.65386 79.8991 4.38011C79.8078 4.10635 79.6253 3.92387 79.4428 3.83261C78.439 3.2851 75.7927 1.91631 74.7889 3.28509C74.7889 3.28509 74.6977 3.37633 74.6977 3.46758L74.3327 3.37635C74.1501 2.82884 73.6026 2.37256 72.8726 2.19005C72.4163 2.0988 71.9601 2.09881 71.5951 2.28131C71.3213 2.37256 71.3213 2.73758 71.5951 2.82883L72.7814 3.28509C73.0551 3.37635 73.2376 3.65009 73.0551 3.92384C72.9639 4.1976 72.6901 4.38012 72.4163 4.19762C72.4163 4.19762 71.6863 4.01512 71.1388 3.83261C70.8651 3.74136 70.5913 4.01512 70.6826 4.28888C70.8651 4.83639 71.4126 5.3839 72.1426 5.56641C72.7814 5.74891 73.4201 5.56639 73.8764 5.29263L74.1501 5.38389C74.1501 6.02266 74.6977 6.84392 75.1539 7.11768C75.8839 7.57394 76.5227 7.20894 77.2527 6.75268C77.2527 6.75268 79.169 8.21273 78.2565 12.5016C75.8839 12.7754 74.9714 13.5966 74.1501 14.5091C73.6026 14.3266 71.9601 14.1441 71.0476 14.4179C71.3213 14.1441 71.6863 13.8704 72.2338 13.6879C72.5076 13.5966 72.5989 13.4141 72.5989 13.1403C72.5989 13.1403 73.6939 12.7753 73.6939 12.4103C73.6939 12.0453 72.3251 12.0453 71.7776 9.12525C71.6863 8.76024 71.5951 8.48648 71.0476 8.30398C71.0476 8.30398 70.8651 8.03021 71.1388 7.6652C71.4126 7.30019 71.5038 7.20895 71.4126 6.93519C71.3213 6.66144 70.9563 6.47893 70.9563 6.47893V6.02267C70.9563 6.02267 69.8613 5.20138 69.8613 4.0151C69.8613 2.82882 71.4126 1.46005 71.7776 1.09504V1.00378C71.7776 1.00378 71.7776 0.912525 71.6863 0.912525C71.1388 0.547515 70.135 0 68.4925 0C62.1048 0 60.6448 5.74889 59.276 8.48647C59.276 8.57772 59.276 8.57773 59.276 8.66898C60.6448 11.4066 62.8349 11.1328 63.0174 13.5054C63.1086 15.3304 62.6523 15.3304 62.2873 15.3304C62.0136 15.3304 61.5573 15.0566 61.3748 14.8741H61.2835C61.2835 14.8741 61.1923 14.9654 61.2835 14.9654C61.466 15.4217 61.9223 16.5167 63.3824 16.5167C64.1124 16.5167 64.2949 15.8779 64.2949 15.2392V13.1403C64.2949 12.9578 64.2036 12.7753 64.1124 12.5928C63.6561 12.1366 62.5611 11.1328 62.5611 10.3115C62.5611 9.94651 62.8348 9.76402 63.1086 9.76402C63.6561 9.76402 64.2036 10.5853 64.6599 11.6803C64.7511 11.9541 64.9336 12.1366 65.0249 12.2278H65.1162C65.1162 12.2278 65.1162 12.2278 65.1162 12.1366C64.9336 11.4978 64.9337 10.859 64.8424 10.5853C64.8424 10.494 64.7511 10.3115 64.6599 10.2203C64.2036 9.85528 63.1086 8.76022 63.1086 7.11768C63.1086 4.92762 66.6674 5.11014 67.3975 5.11014C67.58 5.84016 68.0362 6.20516 68.31 6.29641C67.215 6.66142 64.8424 7.48271 64.8424 8.8515C64.8424 10.3115 67.3062 10.2203 67.3062 10.2203C67.3062 10.2203 66.9412 13.1403 69.6788 14.0529C69.6788 14.0529 69.2225 14.5091 67.7625 14.5091C66.3937 14.5091 65.7549 13.8704 65.3899 13.1403C65.3899 13.1403 65.3899 13.0491 65.2987 13.0491C65.2987 13.0491 65.2074 13.0491 65.2074 13.1403C65.1162 13.3229 65.1162 13.6879 65.2987 14.0529C65.6637 14.6916 66.2112 15.0567 66.2112 15.8779C66.2112 16.5167 65.6637 16.8817 65.3899 16.973C65.9374 17.0642 68.4012 17.703 70.0438 18.5242C70.2263 18.433 71.6863 17.5205 71.7776 16.2429C71.7776 16.2429 71.8688 15.4217 70.6826 15.3304C70.6826 15.3304 71.2301 15.1479 72.1426 15.1479C73.0551 15.1479 74.0589 15.8779 72.2338 19.7105C72.2338 19.7105 72.2338 19.7105 72.2338 19.8018C72.5076 19.9843 74.6064 21.3531 75.9752 22.6306H76.0664C76.0664 22.6306 76.1577 22.6306 76.1577 22.5394C76.3402 22.3569 76.7052 21.7181 76.8877 20.1668C76.8877 19.9843 76.979 19.893 77.1615 19.893C77.9828 19.6193 80.7203 18.798 81.9066 17.1555C83.2754 15.2391 83.8229 14.9654 83.8229 14.9654C83.8229 14.9654 84.7354 14.4179 84.3704 13.0491C84.1879 12.3191 83.0929 10.494 81.9979 8.57773C82.2716 8.76023 82.5454 8.85148 82.8191 8.94273C83.4579 9.12523 84.0966 9.034 84.5529 8.76024C84.6442 8.66899 84.7354 8.57772 84.7354 8.48647C84.7354 8.39522 84.6442 8.30397 84.5529 8.21272L83.3666 7.75646C83.0929 7.66521 82.9104 7.30021 83.0016 7.02645C83.0929 6.75269 83.4579 6.57017 83.7316 6.66142L84.8267 7.02645C84.9179 7.02645 85.0092 7.02644 85.1004 6.93519C85.1917 6.84394 85.1004 6.93518 85.1004 6.75268Z" fill="black"/>
<path d="M68.9455 10.218C68.9455 10.218 68.4892 10.3092 68.5804 11.0392C68.6717 11.678 69.2192 11.678 69.2192 11.678C68.7629 11.1305 68.9455 10.218 68.9455 10.218Z" fill="black"/>
<path d="M61.0082 19.254C62.6508 20.1665 66.3009 21.2616 67.0309 23.1779C67.0309 23.1779 67.3046 23.6341 65.8446 23.6341C64.7496 23.6341 64.4758 23.3604 63.7458 22.4479C62.6508 21.1703 60.3694 20.3491 60.3694 19.3453C60.2782 19.4365 60.3695 18.889 61.0082 19.254Z" fill="black"/>
</svg>
