<?xml version="1.0" encoding="UTF-8"?>
<svg id="Layer_1" xmlns="http://www.w3.org/2000/svg" viewBox="0 0 281.55 80.99">
  <defs>
    <style>
      .cls-1 {
        fill: #fff;
      }
    </style>
  </defs>
  <path id="flat" class="cls-1" d="M74.16,15.25c-.76-2.38-2.96-3.9-5.33-3.9-.56,0-1.14.09-1.7.27-15.35,4.89-31.2,8-47.25,9.27-3.08.24-5.38,2.94-5.14,6.02.23,2.93,2.68,5.16,5.57,5.16,0,0,0,0,.01,0,.15,0,.29,0,.44-.02,9.7-.77,19.34-2.18,28.84-4.21,7.06-1.51,14.04-3.36,20.93-5.55,2.95-.94,4.57-4.09,3.64-7.03M63.83,29.71l-3.05-.4-2.41-.32-3.89-.51c-8.72,2.05-17.56,3.58-26.46,4.58l4.54.59,3.16.41,3.05.39c-3.38.54-6.6,1-9.37,1.32-3.07.36-5.27,3.14-4.91,6.21.26,2.2,1.75,3.94,3.71,4.63.58.21,1.2.32,1.85.32.22,0,.43-.01.65-.04,4.72-.55,10.57-1.45,16.44-2.5,6.34-1.13,12.7-2.43,17.67-3.65,3-.74,4.84-3.77,4.1-6.77-.6-2.44-2.71-4.1-5.08-4.25M56.44,47.91h0s-6.22-2.36-6.22-2.36c-6.03,1.12-12.21,2.12-17.36,2.78l5.65,2.08c-1.91,1.13-3.05,3.33-2.7,5.66.42,2.77,2.81,4.76,5.53,4.76.28,0,.56-.02.84-.06,2.76-.42,10.51-1.64,13.25-2.14,3.04-.56,5.05-3.48,4.49-6.52-.37-1.98-1.73-3.51-3.48-4.19"/>
  <path class="cls-1" d="M93.17,46.89c-2.15,0-3.69-.2-5.07-.52-.29-.06-.54-.26-.54-.57v-2.06c0-.31.26-.54.54-.54h.06c1.15.14,4.01.29,5.07.29,2.55,0,3.32-.92,3.32-2.58,0-1.12-.54-1.69-2.43-2.81l-3.78-2.26c-2.66-1.57-3.38-3.24-3.38-5.24,0-3.15,1.83-5.44,7.16-5.44,1.89,0,4.52.29,5.5.52.29.06.52.26.52.54v2.12c0,.29-.2.51-.49.51h-.06c-1.89-.17-3.78-.29-5.64-.29-2.12,0-3.01.74-3.01,2.03,0,.94.49,1.52,2.35,2.55l3.44,1.92c3.15,1.75,3.98,3.58,3.98,5.84,0,2.89-1.8,5.98-7.53,5.98M115.36,39.9c.4,0,.57-.26.57-.72v-1.6c0-4.27-2.41-7.27-6.81-7.27s-6.87,2.81-6.87,7.27v2.12c0,5.64,4.07,7.19,6.93,7.19,2.58,0,3.69-.14,5.55-.49.52-.09.6-.29.6-.74v-1.89c0-.29-.23-.43-.52-.43h-.09c-1.2.11-3.18.29-5.27.29-2.75,0-3.44-1.98-3.44-3.64v-.09h9.33M112.13,37.21h-6.07v-.11c0-2.26,1.29-3.52,3.06-3.52s3.01,1.29,3.01,3.52v.11ZM125.79,33.52c.32,0,.57-.26.57-.57v-2.06c0-.32-.26-.57-.57-.57-1.15,0-2.69.29-4.09,1.37v-.6c0-.32-.26-.57-.57-.57h-2.49c-.31,0-.57.26-.57.57v14.97c0,.31.26.6.57.6h2.63c.32,0,.57-.29.57-.6v-11.51c1.2-.63,2.41-1.03,3.95-1.03M141.99,31.17c.03-.06.03-.14.03-.2,0-.26-.2-.46-.46-.46h-2.86c-.26,0-.52.2-.6.57l-2.75,12c-.11.54-.31.72-.54.72s-.43-.17-.54-.72l-2.75-12c-.09-.37-.31-.57-.57-.57h-2.86c-.26,0-.46.2-.46.46,0,.06,0,.14.03.2l3.61,13.03c.57,2.12,2.09,2.69,3.55,2.69s3.01-.57,3.58-2.69l3.61-13.03M147.95,28.36c.31,0,.57-.26.57-.57v-2.52c0-.31-.26-.57-.57-.57h-2.78c-.31,0-.6.26-.6.57v2.52c0,.32.29.57.6.57h2.78M147.87,46.66c.31,0,.57-.29.57-.6v-14.97c0-.32-.26-.57-.57-.57h-2.63c-.31,0-.57.26-.57.57v14.97c0,.31.26.6.57.6h2.63M160.78,46.52c.49-.11.6-.29.6-.74v-1.86c0-.29-.23-.43-.52-.43h-.09c-1.15.14-1.83.2-3.69.2-1.35,0-2.75-.77-2.75-3.75v-2.66c0-2.98,1.4-3.75,2.75-3.75,1.86,0,2.55.06,3.69.2h.09c.29,0,.52-.14.52-.43v-1.86c0-.46-.11-.63-.6-.74-.66-.17-1.95-.37-3.69-.37-3.72,0-6.53,2.29-6.53,6.96v2.66c0,4.67,2.81,6.96,6.53,6.96,1.75,0,3.03-.2,3.69-.37M175.49,39.9c.4,0,.57-.26.57-.72v-1.6c0-4.27-2.41-7.27-6.81-7.27s-6.87,2.81-6.87,7.27v2.12c0,5.64,4.07,7.19,6.93,7.19,2.58,0,3.69-.14,5.55-.49.52-.09.6-.29.6-.74v-1.89c0-.29-.23-.43-.52-.43h-.09c-1.2.11-3.18.29-5.27.29-2.75,0-3.44-1.98-3.44-3.64v-.09h9.33M172.25,37.21h-6.07v-.11c0-2.26,1.29-3.52,3.06-3.52s3.01,1.29,3.01,3.52v.11ZM198.79,28.56c.32,0,.57-.26.57-.57v-1.83c0-.4-.14-.54-.57-.6-.92-.14-2.03-.4-5.44-.4-3.72,0-6.61,1-6.61,5.87v15.06c0,.32.26.57.57.57h2.81c.31,0,.57-.26.57-.57v-8.76h7.76c.32,0,.57-.26.57-.57v-2.06c0-.32-.26-.57-.57-.57h-7.76v-3.09c0-1.89.6-2.46,2.26-2.46h5.84M213.93,46.66c.32,0,.57-.26.57-.57v-14.97c0-.31-.26-.6-.57-.6h-2.63c-.31,0-.57.29-.57.6v11.45c-.8.43-2.18,1.15-3.24,1.15-.89,0-1.37-.17-1.77-.52-.54-.49-.66-1.32-.66-2.75v-9.33c0-.31-.26-.6-.57-.6h-2.63c-.31,0-.57.29-.57.6v9.33c0,2.38.37,4.15,1.43,5.21.83.83,2.09,1.2,3.52,1.2,1.83,0,3.01-.46,4.5-1.43v.66c0,.32.26.57.57.57h2.63M222.35,46.89c3.75,0,5.61-1.98,5.61-4.47,0-1.46-.34-2.89-2.75-4.35l-3.75-2.29c-.72-.43-1.15-.72-1.15-1.17,0-.89.6-1.2,1.98-1.2,1.63,0,3.92.23,4.72.34h.11c.29,0,.46-.2.46-.54v-1.66c0-.34-.17-.57-.52-.66-1.46-.32-2.78-.57-5.1-.57-3.64,0-5.44,1.43-5.44,4.29,0,1.66,1,3.09,2.41,3.95l3.92,2.41c.92.57,1.26.92,1.26,1.46,0,.77-.26,1.37-2.03,1.37-.86,0-3.44-.14-4.81-.32h-.11c-.29,0-.49.23-.49.46v1.72c0,.34.2.57.54.66,1.6.43,4.01.57,5.12.57M233.38,28.36c.31,0,.57-.26.57-.57v-2.52c0-.31-.26-.57-.57-.57h-2.78c-.31,0-.6.26-.6.57v2.52c0,.32.29.57.6.57h2.78M233.29,46.66c.31,0,.57-.29.57-.6v-14.97c0-.32-.26-.57-.57-.57h-2.63c-.31,0-.57.26-.57.57v14.97c0,.31.26.6.57.6h2.63M242.92,46.89c4.5,0,6.84-3.03,6.84-7.13v-2.32c0-4.09-2.35-7.13-6.84-7.13s-6.84,3.03-6.84,7.13v2.32c0,4.09,2.35,7.13,6.84,7.13M245.98,39.76c0,2.35-1.06,3.87-3.06,3.87s-3.06-1.52-3.06-3.87v-2.32c0-2.35,1.06-3.87,3.06-3.87s3.06,1.52,3.06,3.87v2.32ZM264.54,46.66c.32,0,.57-.29.57-.6v-9.33c0-3.64-.83-6.41-4.95-6.41-1.89,0-2.98.31-4.64,1.37v-.6c0-.32-.26-.57-.57-.57h-2.49c-.31,0-.57.26-.57.57v14.97c0,.31.26.6.57.6h2.63c.32,0,.57-.29.57-.6v-11.51c1.2-.63,2.26-1.03,3.24-1.03,2.2,0,2.43.72,2.43,3.21v9.33c0,.31.26.6.57.6h2.63"/>
  <g>
    <g id="Layer_2">
      <g id="Layer_1-2">
        <path class="cls-1" d="M189.1,58.84c.52-.29,1.1-.44,1.7-.43.64,0,1.28.16,1.84.48.55.32.99.79,1.28,1.36.32.63.49,1.33.47,2.04.01.71-.15,1.41-.47,2.04-.59,1.17-1.8,1.91-3.12,1.89-.6.01-1.19-.13-1.72-.43-.46-.25-.85-.62-1.12-1.08v1.39h-1.25v-10.21h1.25v4.04c.27-.46.67-.84,1.14-1.1ZM192.77,60.79c-.21-.4-.53-.74-.93-.96-.39-.22-.84-.34-1.29-.33-.45,0-.89.11-1.27.33-.4.23-.72.57-.94.98-.47.94-.47,2.04,0,2.98.21.41.54.75.94.98.39.22.83.34,1.27.33.45,0,.9-.11,1.29-.33.4-.23.72-.57.93-.98.24-.47.35-.99.33-1.51.01-.52-.11-1.03-.35-1.48h.01Z"/>
        <path class="cls-1" d="M202.55,58.53l-4.55,11.12h-1.3l1.49-3.64-3.05-7.48h1.39l2.37,6.13,2.34-6.13h1.3Z"/>
      </g>
    </g>
    <g>
      <g>
        <path class="cls-1" d="M215.6,57.72h-5.08v2.2h3.73v1.89h-3.73v2.75h5.28v2.01h-7.5v-10.86h7.3v2.01Z"/>
        <path class="cls-1" d="M224.75,58.42l-4.03,8.34h-.74l-4.03-8.34h2.34l2.06,4.61,2.06-4.61h2.35Z"/>
        <path class="cls-1" d="M232.97,63.24h-5.71c.26,1.04,1.1,1.61,2.29,1.61.89,0,1.61-.31,2.27-.82l.92,1.51c-.92.77-2.01,1.22-3.26,1.22-2.58,0-4.46-1.86-4.46-4.26s1.86-4.26,4.26-4.26,3.83,1.68,3.83,3.78c0,.46-.08.94-.15,1.22ZM227.26,61.68h3.7c-.02-1.04-.82-1.65-1.76-1.65s-1.69.63-1.94,1.65Z"/>
        <path class="cls-1" d="M239.62,58.42v1.96h-.59c-1.28,0-2.19.66-2.19,2.12v4.06h-2.22v-8.14h2.04v.97c.54-.69,1.35-1.07,2.24-1.07.3,0,.51.03.72.1Z"/>
        <path class="cls-1" d="M248.91,59.21c0,2.09-1.63,3.52-3.92,3.52h-1.86v3.83h-2.22v-10.86h4.08c2.29,0,3.92,1.38,3.92,3.5ZM243.14,57.67v3.13h1.86c1.04,0,1.65-.64,1.65-1.58s-.61-1.55-1.65-1.55h-1.86Z"/>
        <path class="cls-1" d="M249.8,66.57h2.22v-3.83c0-1.12.03-2.11.61-2.47.49-.3,1.11-.19,1.58.12l1.21-1.74s-.62-.28-1.1-.4c-.89-.22-2.17-.14-2.98.33s-1.48,1.44-1.51,2.53c-.02.53-.02,5.46-.02,5.46Z"/>
        <g>
          <path class="cls-1" d="M265.15,62.49c0,2.42-1.97,4.26-4.39,4.26-.91,0-1.58-.15-2.16-.47-.49-.27-.91-.66-1.33-1.18-.06-.08-.12-.15-.19-.23-.46-.59-2.33-3.73-2.33-3.73l1.17-1.77s2.17,3.42,2.82,4.14c.75.84,1.26,1.2,2.03,1.2,1.2,0,2.11-.94,2.11-2.2s-.91-2.24-2.11-2.24c-.52,0-.97.17-1.33.46-.35.29-.64.62-.97,1.06l-1.26-1.78c.79-1.04,2.11-1.76,3.56-1.76,2.4,0,4.38,1.84,4.38,4.25Z"/>
          <path class="cls-1" d="M258.6,66.27c-.49-.24-.91-.65-1.33-1.18.43.52.84.91,1.33,1.18Z"/>
        </g>
      </g>
      <path class="cls-1" d="M265.99,57.76c-.12,0-.23-.02-.33-.07-.1-.04-.19-.11-.27-.19-.08-.08-.14-.17-.18-.28-.04-.11-.07-.22-.07-.35s.02-.24.07-.35.1-.2.18-.28c.08-.08.17-.14.27-.19.1-.04.21-.07.33-.07s.22.02.33.07c.1.04.19.11.27.19.08.08.14.17.18.28.05.11.07.22.07.35s-.02.24-.07.35c-.05.11-.11.2-.18.28-.08.08-.17.14-.27.19-.1.04-.21.07-.33.07ZM265.99,57.59c.1,0,.19-.02.27-.06.08-.04.15-.09.21-.15.06-.06.1-.13.14-.21.03-.08.05-.16.05-.25v-.09c0-.09-.02-.17-.05-.25-.03-.08-.08-.15-.14-.21s-.13-.11-.21-.15c-.08-.04-.17-.06-.27-.06s-.19.02-.27.06c-.08.04-.15.09-.21.15s-.1.13-.14.21c-.03.08-.05.16-.05.25v.09c0,.09.02.17.05.25.03.08.08.15.14.21.06.06.13.11.21.15.08.04.17.06.27.06ZM265.84,57.34h-.17v-.9h.39c.09,0,.15.03.2.08.05.05.07.12.07.2,0,.07-.02.12-.05.17-.03.04-.07.07-.12.09l.21.36h-.19l-.19-.34h-.15v.34ZM266.04,56.86c.07,0,.1-.03.1-.09v-.09c0-.06-.03-.09-.1-.09h-.21v.27h.21Z"/>
    </g>
  </g>
</svg>